PathFileType	3	(X/Y/Z)	C:\Users\dbak576\Desktop\Duncan Bakke Modelling Files\Output\AB08\_12Mar_ss_12ms_01\AB08_12Mar_ss_12ms_01.trc
DataRate	CameraRate	NumFrames	NumMarkers	Units	OrigDataRate	OrigDataStartFrame	OrigNumFrames
200.0	200.0	6	42	mm	200.0	5335	3036	
Frame#	Time	LASI			RASI			LPSI			RPSI			LTH1			LTH2			LTH3			LTH4			LMFC			LLFC			LTB1			LTB2			LTB3			LTB4			LMMAL			LLMAL			LCAL			LToe			LMT1			LMT5			RTH1			RTH2			RTH3			RTH4			RMFC			RLFC			RTB1			RTB2			RTB3			RTB4			RMMAL			RLMAL			RCAL			RToe			RMT1			RMT5			C7			T10			LACR1			RACR1			CLAV			RBack			
		X1	Y1	Z1	X2	Y2	Z2	X3	Y3	Z3	X4	Y4	Z4	X5	Y5	Z5	X6	Y6	Z6	X7	Y7	Z7	X8	Y8	Z8	X9	Y9	Z9	X10	Y10	Z10	X11	Y11	Z11	X12	Y12	Z12	X13	Y13	Z13	X14	Y14	Z14	X15	Y15	Z15	X16	Y16	Z16	X17	Y17	Z17	X18	Y18	Z18	X19	Y19	Z19	X20	Y20	Z20	X21	Y21	Z21	X22	Y22	Z22	X23	Y23	Z23	X24	Y24	Z24	X25	Y25	Z25	X26	Y26	Z26	X27	Y27	Z27	X28	Y28	Z28	X29	Y29	Z29	X30	Y30	Z30	X31	Y31	Z31	X32	Y32	Z32	X33	Y33	Z33	X34	Y34	Z34	X35	Y35	Z35	X36	Y36	Z36	X37	Y37	Z37	X38	Y38	Z38	X39	Y39	Z39	X40	Y40	Z40	X41	Y41	Z41	X42	Y42	Z42	
5335	26.665	342.08215	922.93225	-877.85297	600.62421	939.69122	-906.39221	448.21005	955.06329	-665.13336	568.04272	946.92194	-678.70612	338.30829	633.90057	-825.83447	330.41171	609.09692	-795.54297	378.26978	563.47046	-784.16736	359.59393	595.35468	-805.62018	457.94775	491.90427	-687.41071	333.17847	506.02554	-658.41846	314.79288	421.92584	-595.43646	318.16235	353.35556	-546.00891	336.36441	326.33643	-589.15546	327.85098	364.27283	-602.29034	440.21799	156.20348	-455.23956	352.15912	158.39761	-436.14774	394.82349	120.46406	-340.49799	411.49295	34.147121	-623.51251	437.63477	48.00703	-534.95966	317.06815	41.694763	-516.53448	598.53314	716.98987	-1019.367	584.88721	652.70654	-1033.3428	630.04828	616.76111	-1010.0226	639.09277	673.78259	-1001.1029	497.40399	514.47052	-1030.0188	623.63257	512.50287	-996.88409	630.80798	406.0777	-1040.6146	619.15472	375.10745	-1063.6433	608.1554	329.82425	-1083.8851	633.77429	316.56158	-1038.281	523.32983	129.5793	-1118.0171	606.49408	109.04092	-1083.9581	546.52277	52.037682	-1027.2035	575.49969	81.716934	-1325.9203	538.17615	63.956238	-1237.8834	646.37421	61.072231	-1207.1355	463.59409	1456.7482	-752.6651	461.3298	1206.3372	-675.32892	299.72351	1425.6255	-826.81042	625.2959	1418.0142	-800.74146	472.5376	1376.8929	-902.67444	577.35895	1354.2195	-685.80811
5336	26.67	343.1748	922.39929	-879.53998	601.64502	939.94147	-907.90814	448.93771	954.55988	-667.54608	569.03259	947.19458	-679.88629	338.18735	633.797	-827.11719	330.41641	609.01782	-796.85242	377.61417	563.68365	-786.09674	359.43921	595.13312	-806.98206	457.77954	491.46954	-688.76501	332.93582	506.01584	-659.54675	314.50378	422.32697	-596.05157	317.93848	354.53271	-545.69196	336.07123	326.80399	-588.46509	327.78699	364.61057	-602.14935	439.73053	158.32007	-452.26611	351.5354	161.0218	-433.10901	394.68793	124.79014	-336.8313	411.54669	34.040836	-617.37366	437.86047	47.976902	-529.42804	317.17764	42.026871	-511.08105	599.39594	717.27588	-1020.0897	585.5423	652.7276	-1033.1206	630.61481	616.93347	-1010.5087	639.83344	673.90509	-1001.7943	497.98215	513.44775	-1028.0292	625.24365	512.62677	-996.91138	631.57709	405.96185	-1041.0553	619.95129	375.22668	-1063.8682	608.74426	329.7807	-1083.5442	635.04877	316.85126	-1038.324	523.88397	128.2601	-1115.3198	606.90649	108.48164	-1080.0236	546.66479	53.043312	-1022.1665	577.25873	76.413948	-1321.432	539.30908	60.858467	-1233.436	647.5863	57.961864	-1201.9712	464.60406	1456.5034	-752.60309	461.88934	1206.1099	-674.47028	300.42862	1425.3558	-826.66986	626.22784	1417.5637	-800.685	473.50369	1377.1301	-902.83807	578.37366	1353.5112	-685.91516
5337	26.675	344.31516	921.90948	-881.25958	602.47211	940.10364	-909.18542	449.63391	954.76422	-667.89886	570.15204	947.71466	-681.12543	338.28458	633.85236	-828.59619	330.22055	608.98004	-798.53931	377.4295	563.42346	-787.79089	359.53485	595.01263	-808.57922	457.59207	491.05603	-690.32831	332.62836	505.94986	-661.03632	314.12772	422.69128	-596.91803	317.58673	355.48721	-545.63074	335.72278	327.27713	-587.95947	327.5174	364.94284	-602.23492	439.14063	160.42334	-449.44394	351.06021	163.7428	-430.28748	394.63501	129.58441	-333.08853	411.48444	34.069374	-611.1781	437.88205	47.887882	-523.74341	317.34686	42.323936	-505.60736	600.15137	717.79529	-1020.6261	586.18182	653.54749	-1034.4285	631.1947	617.27966	-1011.2023	640.54565	674.31586	-1002.4446	498.55835	512.55518	-1025.8485	627.01874	512.99481	-997.42047	632.99927	406.67496	-1042.0826	620.83978	375.43054	-1064.3043	609.31763	329.70059	-1083.465	636.43445	317.21423	-1038.4346	524.28143	126.98469	-1112.0209	607.34265	107.95106	-1075.6561	547.01575	53.852814	-1017.0182	578.95221	71.932404	-1316.2255	540.36975	58.229404	-1228.7615	648.82275	55.346954	-1196.4646	465.52829	1456.3621	-752.58203	462.61731	1205.7339	-675.21301	301.09595	1425.2279	-826.51996	627.20081	1417.3104	-800.573	474.48132	1377.4973	-902.98798	579.30853	1352.907	-686.10162
5338	26.68	345.55164	921.61621	-883.0365	603.37024	940.27545	-910.36377	450.11618	954.77246	-669.18085	571.14825	948.31873	-682.20746	338.22067	633.72577	-830.54437	330.41626	609.00281	-800.32623	377.32993	563.24298	-789.61993	359.67538	595.04993	-810.43823	457.3428	490.64502	-692.32465	332.32449	505.90134	-662.92395	313.67389	422.99438	-597.94391	317.08081	356.55911	-545.74188	335.20566	327.75885	-587.67804	327.02621	365.16083	-602.41815	438.58615	162.69177	-446.97916	350.55179	166.5408	-427.69266	394.48001	134.41364	-330.0752	411.55048	34.060455	-604.92413	438.20142	47.667606	-518.42822	317.47031	42.764229	-500.19705	600.82703	718.45123	-1020.9755	586.82043	654.2962	-1035.0052	631.80164	617.93018	-1011.9951	641.27521	674.9436	-1003.1562	499.21603	511.73495	-1023.6174	628.99927	513.59314	-998.41309	633.78748	406.72595	-1043.012	621.57043	375.51563	-1064.7903	609.91541	329.57559	-1083.4043	637.85095	317.54926	-1038.8069	524.38354	125.94573	-1107.9536	607.65289	107.37472	-1070.9786	547.26117	54.628201	-1011.6885	580.44196	68.555206	-1311.1841	541.14148	55.977333	-1223.8016	650.01532	53.250374	-1190.8411	466.46695	1456.3257	-752.58002	463.24469	1205.4326	-675.84613	301.74289	1425.2096	-826.53186	628.18756	1417.1348	-800.54639	475.31253	1377.895	-903.10126	580.27393	1352.452	-686.1676
5339	26.685	346.90732	921.55914	-884.8454	604.22797	940.48083	-911.36658	450.75616	954.84546	-670.65094	572.19128	948.94495	-683.3501	338.62256	633.99341	-832.49298	330.63062	609.16528	-802.2829	377.29385	563.21216	-791.93176	359.71884	594.70795	-812.63531	457.0304	490.16019	-694.48395	331.87457	505.76956	-665.1319	313.03244	423.35687	-599.43854	316.67047	357.6705	-546.18201	334.63016	328.14316	-587.78711	326.52893	365.40714	-603.00476	437.80856	164.82263	-444.72803	349.98126	169.32036	-425.3685	394.41187	139.54559	-327.08307	411.6384	33.958206	-598.66736	438.64194	47.48399	-513.10669	317.53476	43.305573	-494.89816	601.31012	719.32166	-1021.1741	587.43939	655.27448	-1035.6788	632.85144	618.961	-1013.0688	641.86743	675.81635	-1003.8091	500.10574	511.17999	-1021.5953	630.9198	514.45233	-999.80231	634.65985	406.97043	-1044.2229	622.2309	375.42279	-1065.4581	610.50885	329.45322	-1083.3428	639.10974	317.88626	-1039.0563	524.44159	125.20596	-1103.4015	607.86597	106.96075	-1066.1351	547.59314	55.327549	-1006.2119	581.33606	65.024796	-1305.8387	541.57855	53.871559	-1218.7433	650.98334	51.628143	-1185.0458	467.35675	1456.3663	-752.63092	463.86185	1205.2537	-676.43939	302.49652	1425.2433	-826.52368	629.07361	1417.0455	-800.43964	476.21277	1378.3877	-903.21838	581.2207	1352.0814	-686.37317
5340	26.69	348.24039	921.53314	-886.64685	605.02039	940.70398	-912.21289	451.07077	954.98706	-672.17737	573.06708	949.72321	-684.28595	339.06683	634.44482	-834.48816	330.82135	609.4079	-804.39838	377.21011	563.22559	-794.43549	359.65564	595.04468	-815.12872	456.64713	489.65875	-697.05762	331.2702	505.5675	-667.74976	312.40408	423.6749	-601.1601	316.08414	358.79526	-546.94733	334.12839	328.6666	-588.12439	325.69479	365.63275	-603.86957	437.08499	166.81094	-443.06088	349.31339	172.2159	-423.0755	394.35883	144.92062	-324.76465	411.81866	34.075695	-592.53424	439.11902	47.244022	-507.82077	317.81042	43.814754	-489.65897	601.83386	720.51819	-1021.5475	588.185	656.09595	-1035.715	633.92261	620.1759	-1014.5131	642.68713	676.95935	-1004.8481	501.45966	510.92715	-1019.8856	632.84387	515.53027	-1001.6801	635.57031	407.16565	-1045.3802	622.89484	375.36334	-1066.0308	611.0423	329.15631	-1083.1516	640.42511	318.23172	-1039.0944	524.3725	124.81628	-1098.4946	607.98364	106.60971	-1061.2322	547.76514	55.947971	-1000.3995	581.78607	61.510246	-1300.5734	541.59863	51.851681	-1213.4142	651.64343	50.229942	-1179.4023	468.20181	1456.5491	-752.72253	464.43738	1204.9211	-678.33325	303.1723	1425.3882	-826.5484	629.97961	1417.0789	-800.36969	477.03909	1379.0365	-903.32147	582.09338	1351.9047	-686.49731
